<svg width="202" height="115" viewBox="0 0 202 115" fill="none" xmlns="http://www.w3.org/2000/svg">
<g clip-path="url(#clip0)">
<path d="M168.2 114.068C166.354 112.577 165.233 110.222 165.527 107.929C165.821 105.635 167.642 103.527 170.005 103.04C172.368 102.554 175.062 103.901 175.779 106.108C176.174 101.854 176.629 97.4229 178.995 93.801C181.138 90.5213 184.848 88.1746 188.869 87.7548C192.891 87.335 197.125 88.9206 199.633 91.9542C202.141 94.9878 202.755 99.398 200.998 102.881C199.704 105.446 197.32 107.356 194.823 108.909C186.751 113.886 177.071 115.911 167.563 114.609" fill="#F2F2F2"/>
<path d="M195.656 89.0085C192.338 91.5915 189.294 94.4805 186.568 97.6336C182.302 102.551 178.85 108.065 176.332 113.982C176.148 114.414 176.881 114.602 177.063 114.175C181.183 104.558 187.76 96.0816 196.192 89.5211C196.571 89.2264 196.032 88.7162 195.656 89.0085V89.0085Z" fill="white"/>
<path d="M99.2689 7.2605C99.2687 7.31249 99.247 7.36231 99.2086 7.39908C99.1701 7.43584 99.118 7.45657 99.0636 7.45673H98.965C98.8131 7.33114 98.6652 7.19967 98.5215 7.06427H99.0636C99.118 7.06443 99.1701 7.08515 99.2085 7.12192C99.247 7.15868 99.2687 7.2085 99.2689 7.2605Z" fill="#F2F2F2"/>
<path d="M104.196 0H52.6628C52.2817 0.000404606 51.9164 0.145252 51.647 0.402767C51.3776 0.660282 51.226 1.00943 51.2256 1.37361V28.0609C51.226 28.4251 51.3776 28.7743 51.647 29.0318C51.9164 29.2893 52.2817 29.4342 52.6628 29.4346H104.196C104.577 29.4342 104.943 29.2893 105.212 29.0318C105.482 28.7743 105.633 28.4251 105.634 28.0609V1.37361C105.633 1.00943 105.482 0.660282 105.212 0.402767C104.943 0.145252 104.577 0.000404606 104.196 0ZM105.223 28.0609C105.223 28.3211 105.115 28.5706 104.922 28.7546C104.73 28.9386 104.469 29.042 104.196 29.0421H52.6628C52.3905 29.042 52.1295 28.9386 51.937 28.7546C51.7445 28.5706 51.6363 28.3211 51.6362 28.0609V1.37361C51.6363 1.11343 51.7445 0.863926 51.937 0.679947C52.1295 0.495967 52.3905 0.392565 52.6628 0.392461H104.196C104.469 0.392565 104.73 0.495967 104.922 0.679947C105.115 0.863926 105.223 1.11343 105.223 1.37361V28.0609Z" fill="#3F3D56"/>
<path d="M72.9313 11.609C72.3174 10.2 71.3627 9.02657 69.9747 8.2495C68.5191 7.43122 66.8541 6.75031 65.1787 6.50502C63.5016 6.26805 61.7916 6.35951 60.1526 6.77386C59.9391 6.82684 59.7173 6.88375 59.4957 6.94654C58.9192 7.08877 58.3711 7.32081 57.8736 7.63335C57.8572 7.64316 57.8408 7.65297 57.8244 7.66474C57.1879 8.11215 56.7526 8.84997 56.3954 9.51127C56.0567 10.1451 55.8431 10.8437 56.0279 11.5521C56.2282 12.1982 56.6452 12.7636 57.2146 13.1612C57.6108 13.4594 58.1303 13.8362 58.66 13.844C58.7852 13.8467 58.9099 13.8267 59.0275 13.7852C59.0643 13.7728 59.0994 13.7563 59.1321 13.7361C59.3456 13.7974 59.5664 13.8323 59.7892 13.8401C60.6905 13.8794 61.5919 13.5144 62.5178 13.2161C62.7349 13.1437 62.9572 13.0867 63.183 13.0454C63.5873 12.9613 64.0071 12.9748 64.4046 13.0846C64.478 13.1044 64.55 13.1287 64.6202 13.1572C65.3062 13.4646 65.885 13.9545 66.2873 14.5681C66.6795 15.1254 66.9382 15.7592 67.3693 16.295C67.5834 16.571 67.8557 16.801 68.1687 16.9701C68.4818 17.1391 68.8285 17.2434 69.1863 17.2761C70.2622 17.3899 71.6131 17.335 72.5391 16.7169C72.7904 16.5528 73.0059 16.3435 73.1735 16.1007C73.19 16.0771 73.2064 16.0536 73.2207 16.03C74.0729 14.6898 73.5144 12.9414 72.9313 11.609ZM58.7462 9.55051C58.9515 9.57209 59.1589 9.59564 59.3642 9.61723C58.9715 9.68426 58.604 9.84869 58.2987 10.0941C58.1826 10.1882 58.0748 10.2913 57.9763 10.4021C57.9804 10.3943 57.9804 10.3845 57.9845 10.3766C58.0447 10.196 58.1435 10.0294 58.2746 9.88715C58.4057 9.74494 58.5663 9.63031 58.7462 9.55051V9.55051ZM71.1245 14.5348C71.1615 14.5269 71.2005 14.521 71.2375 14.5151C71.2965 14.5063 71.3526 14.4849 71.4017 14.4523C71.4017 14.4582 71.4038 14.4661 71.4038 14.472C71.4041 14.4982 71.4061 14.5244 71.4099 14.5505C71.3996 14.5662 71.3915 14.5819 71.3812 14.5976C71.2949 14.576 71.2107 14.5544 71.1245 14.5348L71.1245 14.5348ZM70.5517 9.76244C71.0063 10.1727 71.3932 10.6464 71.6995 11.1674C71.337 10.7443 70.9365 10.3523 70.5025 9.99595C70.5351 9.92206 70.5518 9.84265 70.5517 9.76244V9.76244ZM70.0528 15.3295C70.0351 15.3582 70.0219 15.3893 70.0137 15.4217C69.9584 15.4237 69.9009 15.4256 69.8434 15.4256H69.8146C69.8126 15.4178 69.8084 15.408 69.8064 15.4001C69.7941 15.3648 69.7839 15.3295 69.7715 15.2942C69.866 15.3059 69.9584 15.3177 70.0528 15.3295V15.3295ZM65.6632 10.928C65.6687 10.8884 65.6701 10.8483 65.6673 10.8083C65.7125 10.8409 65.7654 10.8625 65.8213 10.8711C65.8275 10.8731 65.8357 10.8731 65.8418 10.8751C65.8808 10.8966 65.9178 10.9163 65.9568 10.9379L65.9445 10.9555C65.85 10.9457 65.7556 10.9379 65.6632 10.9281V10.928ZM68.9154 9.95082H68.9092C68.7737 9.87036 68.6382 9.78991 68.5007 9.71338C68.6402 9.78795 68.7799 9.8684 68.9154 9.95083V9.95082ZM68.1598 13.6282C68.1386 13.6485 68.1207 13.6716 68.1065 13.6969C68.0962 13.6831 68.0879 13.6713 68.0777 13.6576C68.1035 13.6443 68.1312 13.6344 68.1598 13.6282V13.6282ZM66.3202 9.78402C66.2746 9.74939 66.2241 9.72099 66.1703 9.69964C65.9059 9.60213 65.6349 9.52149 65.3593 9.45828C65.3183 9.42099 65.2772 9.38371 65.2382 9.34447C65.4713 9.38757 65.7016 9.44326 65.928 9.51126C66.2181 9.60017 66.5026 9.705 66.7801 9.82523C66.6261 9.80953 66.4742 9.7958 66.3202 9.78402L66.3202 9.78402ZM64.7557 7.32329C65.3464 7.39867 65.9286 7.52611 66.4947 7.70398C66.4372 7.69024 66.3798 7.67847 66.3223 7.66473C65.7782 7.54699 65.2239 7.42141 64.6654 7.31348C64.6962 7.31741 64.7249 7.31937 64.7557 7.3233L64.7557 7.32329Z" fill="#CCCCCC"/>
<path d="M66.9675 22.5619C66.4496 22.5481 65.8052 22.5308 65.3089 22.1843C65.1611 22.0769 65.0397 21.9398 64.9531 21.7828C64.8665 21.6258 64.8169 21.4526 64.8077 21.2753C64.7988 21.1493 64.8204 21.023 64.8709 20.9064C64.9215 20.7897 64.9996 20.6858 65.0991 20.6028C65.247 20.4972 65.4202 20.4288 65.6029 20.4036C65.7856 20.3785 65.972 20.3975 66.145 20.4589L65.7223 17.506L66.0326 17.4654L66.5296 20.9368L66.2705 20.8231C65.97 20.6914 65.5576 20.6245 65.3013 20.8314C65.2384 20.8855 65.1894 20.9527 65.158 21.0279C65.1267 21.103 65.114 21.184 65.1208 21.2647C65.1284 21.3966 65.1656 21.5255 65.2299 21.6424C65.2943 21.7594 65.3843 21.8618 65.4937 21.9425C65.8799 22.2122 66.3936 22.247 66.9763 22.2627L66.9675 22.5619Z" fill="#3F3D56"/>
<path d="M64.1875 17.7607H62.5005V18.0601H64.1875V17.7607Z" fill="#3F3D56"/>
<path d="M69.5126 17.7607H67.8256V18.0601H69.5126V17.7607Z" fill="#3F3D56"/>
<path d="M59.5695 13.6266C58.2109 13.4785 57.1588 12.2344 57.0432 10.9721C56.9057 9.47043 57.8207 8.04414 59.0761 7.20144C60.3889 6.32017 62.0246 5.95216 63.6071 5.87114C66.6943 5.72431 69.7283 6.6801 72.1191 8.55265C73.3049 9.49398 74.4124 10.6931 74.8322 12.1414C75.1967 13.3992 74.9 14.8242 73.8416 15.7051C73.5797 15.921 73.2739 16.0827 72.9434 16.1799C72.613 16.2772 72.265 16.3079 71.9214 16.2702C71.1001 16.1887 70.3424 15.7759 69.6864 15.3201C68.4105 14.4334 67.363 13.1982 65.8084 12.7348C64.6686 12.3951 63.1894 12.6941 62.4929 13.6793C62.3348 13.9048 62.2324 14.1617 62.1933 14.4306C62.179 14.4879 62.1879 14.5483 62.2184 14.5996C62.2488 14.6509 62.2985 14.6892 62.3574 14.7068C62.4175 14.7222 62.4815 14.7144 62.5356 14.6851C62.5897 14.6557 62.6295 14.6072 62.6464 14.5499C62.8293 13.3091 64.4256 12.8461 65.5458 13.1294C67.1792 13.5426 68.2756 14.9356 69.6157 15.8207C70.3093 16.315 71.1265 16.6268 71.9857 16.7248C72.7306 16.7807 73.4699 16.5636 74.0536 16.1176C75.1984 15.2536 75.6362 13.7676 75.3831 12.4296C75.0899 10.8803 73.9988 9.55239 72.8017 8.52432C70.3747 6.46216 67.2239 5.34969 63.9771 5.4086C62.3211 5.44495 60.5932 5.77169 59.1665 6.60825C57.7827 7.41971 56.7131 8.77728 56.5733 10.3553C56.4502 11.7443 57.2299 13.1971 58.5684 13.8056C58.8839 13.9485 59.2223 14.0398 59.5695 14.0757C59.8694 14.1084 59.867 13.659 59.5695 13.6266H59.5695Z" fill="#3F3D56"/>
<path d="M99.2688 7.2605C99.2687 7.31249 99.247 7.36231 99.2085 7.39908C99.17 7.43584 99.1179 7.45657 99.0635 7.45673H82.2278C82.1734 7.45673 82.1212 7.43605 82.0827 7.39925C82.0442 7.36245 82.0225 7.31254 82.0225 7.2605C82.0225 7.20846 82.0442 7.15854 82.0827 7.12174C82.1212 7.08494 82.1734 7.06427 82.2278 7.06427H99.0635C99.1179 7.06443 99.17 7.08515 99.2085 7.12192C99.247 7.15868 99.2687 7.20851 99.2688 7.2605Z" fill="#3F3D56"/>
<path d="M99.0635 10.4002H82.2278C82.1734 10.4002 82.1212 10.3795 82.0827 10.3427C82.0442 10.3059 82.0225 10.256 82.0225 10.204C82.0225 10.1519 82.0442 10.102 82.0827 10.0652C82.1212 10.0284 82.1734 10.0078 82.2278 10.0078H99.0635C99.118 10.0078 99.1702 10.0284 99.2087 10.0652C99.2472 10.102 99.2688 10.1519 99.2688 10.204C99.2688 10.256 99.2472 10.3059 99.2087 10.3427C99.1702 10.3795 99.118 10.4002 99.0635 10.4002Z" fill="#3F3D56"/>
<path d="M99.0635 13.3437H82.2278C82.1734 13.3437 82.1212 13.323 82.0827 13.2862C82.0442 13.2494 82.0225 13.1995 82.0225 13.1475C82.0225 13.0954 82.0442 13.0455 82.0827 13.0087C82.1212 12.9719 82.1734 12.9512 82.2278 12.9512H99.0635C99.118 12.9512 99.1702 12.9719 99.2087 13.0087C99.2472 13.0455 99.2688 13.0954 99.2688 13.1475C99.2688 13.1995 99.2472 13.2494 99.2087 13.2862C99.1702 13.323 99.118 13.3437 99.0635 13.3437Z" fill="#3F3D56"/>
<path d="M99.0635 16.2871H82.2278C82.1734 16.2871 82.1212 16.2664 82.0827 16.2296C82.0442 16.1928 82.0225 16.1429 82.0225 16.0909C82.0225 16.0388 82.0442 15.9889 82.0827 15.9521C82.1212 15.9153 82.1734 15.8947 82.2278 15.8947H99.0635C99.118 15.8947 99.1702 15.9153 99.2087 15.9521C99.2472 15.9889 99.2688 16.0388 99.2688 16.0909C99.2688 16.1429 99.2472 16.1928 99.2087 16.2296C99.1702 16.2664 99.118 16.2871 99.0635 16.2871Z" fill="#3F3D56"/>
<path d="M99.0635 19.2306H82.2278C82.1734 19.2306 82.1212 19.2099 82.0827 19.1731C82.0442 19.1363 82.0225 19.0864 82.0225 19.0344C82.0225 18.9823 82.0442 18.9324 82.0827 18.8956C82.1212 18.8588 82.1734 18.8381 82.2278 18.8381H99.0635C99.118 18.8381 99.1702 18.8588 99.2087 18.8956C99.2472 18.9324 99.2688 18.9823 99.2688 19.0344C99.2688 19.0864 99.2472 19.1363 99.2087 19.1731C99.1702 19.2099 99.118 19.2306 99.0635 19.2306Z" fill="#3F3D56"/>
<path d="M99.0635 22.174H82.2278C82.1734 22.174 82.1212 22.1533 82.0827 22.1165C82.0442 22.0797 82.0225 22.0298 82.0225 21.9778C82.0225 21.9257 82.0442 21.8758 82.0827 21.839C82.1212 21.8022 82.1734 21.7816 82.2278 21.7816H99.0635C99.118 21.7816 99.1702 21.8022 99.2087 21.839C99.2472 21.8758 99.2688 21.9257 99.2688 21.9778C99.2688 22.0298 99.2472 22.0797 99.2087 22.1165C99.1702 22.1533 99.118 22.174 99.0635 22.174Z" fill="#3F3D56"/>
<path d="M38.2151 48.3816C37.6429 48.3832 37.0905 48.1817 36.6648 47.8162C36.4266 47.6132 36.2343 47.3657 36.0998 47.089C35.9652 46.8124 35.8912 46.5123 35.8824 46.2074L26.7714 39.8743C26.4965 39.6832 26.2682 39.4374 26.1022 39.1539C25.9362 38.8704 25.8365 38.5559 25.8099 38.232C25.7833 37.9081 25.8305 37.5825 25.9482 37.2778C26.0659 36.973 26.2513 36.6962 26.4916 36.4665L33.2748 29.9834C33.5543 29.7162 33.9104 29.5343 34.2981 29.4606C34.6858 29.3869 35.0877 29.4247 35.4529 29.5693C35.8181 29.7139 36.1302 29.9587 36.3498 30.2728C36.5694 30.587 36.6866 30.9563 36.6866 31.3341C36.6312 32.3252 36.2225 33.2683 35.5284 34.0065L30.9228 38.4085L38.1515 43.9157C38.1738 43.9142 38.1961 43.9131 38.2187 43.9131C38.8155 43.913 39.3898 44.1312 39.8238 44.5228C40.2578 44.9144 40.5186 45.4498 40.5529 46.0193C40.5871 46.5888 40.3921 47.1492 40.0079 47.5858C39.6237 48.0223 39.0794 48.3019 38.4865 48.3672C38.3963 48.3768 38.3057 48.3816 38.2151 48.3816Z" fill="#FFB8B8"/>
<path d="M49.0417 85.7886L51.4863 84.9163L49.1295 75.4888L45.5214 76.7763L49.0417 85.7886Z" fill="#FFB8B8"/>
<path d="M57.0485 85.4037L49.3652 88.1452L48.257 85.308L53.0769 83.5882C53.8363 83.3172 54.6772 83.3457 55.4147 83.6673C56.1522 83.989 56.7258 84.5774 57.0093 85.3033L57.0485 85.4037Z" fill="#2F2E41"/>
<path d="M27.0481 86.2164H29.6577L30.899 76.5964L27.0477 76.5966L27.0481 86.2164Z" fill="#FFB8B8"/>
<path d="M34.6903 88.532L26.489 88.5324L26.4889 85.5039L31.6337 85.5037C32.4443 85.5036 33.2218 85.8114 33.795 86.3592C34.3682 86.907 34.6903 87.65 34.6903 88.4248L34.6903 88.532Z" fill="#2F2E41"/>
<path d="M29.8646 83.5914C29.8353 83.5914 29.8059 83.59 29.7765 83.5873L27.0103 83.3355C26.7859 83.3151 26.5771 83.217 26.4232 83.0597C26.2692 82.9023 26.1807 82.6967 26.1743 82.4813C26.0147 76.7561 25.6126 47.8606 33.3926 41.2389C33.5274 41.1256 33.6947 41.0534 33.8728 41.0315V41.0314C35.282 40.8468 40.0363 40.394 42.0487 42.3286C42.1764 42.4505 42.2649 42.6047 42.3036 42.7731L51.1132 81.7028C51.1403 81.8226 51.141 81.9465 51.1153 82.0665C51.0896 82.1866 51.038 82.3002 50.9638 82.4002C50.8897 82.5002 50.7946 82.5843 50.6845 82.6472C50.5745 82.7102 50.452 82.7505 50.3248 82.7657L46.9471 83.1692C46.8251 83.1839 46.7013 83.1752 46.5829 83.1435C46.4645 83.1119 46.3539 83.0579 46.2576 82.9848C46.1613 82.9118 46.0813 82.821 46.0222 82.718C45.9631 82.6149 45.9262 82.5016 45.9136 82.3848C45.5775 79.2555 43.558 63.3602 36.7904 57.7258C36.6988 57.6489 36.5884 57.5952 36.4695 57.5696C36.3505 57.5441 36.2267 57.5475 36.1095 57.5795C35.9947 57.61 35.8898 57.6679 35.8049 57.7478C35.72 57.8277 35.6577 57.9269 35.624 58.0362C34.3712 61.9542 30.3197 75.3086 30.7853 82.6555C30.7931 82.7757 30.775 82.896 30.7323 83.0092C30.6895 83.1224 30.6229 83.2261 30.5367 83.3137C30.4504 83.4014 30.3463 83.4713 30.2307 83.519C30.1151 83.5668 29.9905 83.5914 29.8646 83.5914V83.5914Z" fill="#2F2E41"/>
<path d="M35.1882 25.3101C37.9732 25.3101 40.2309 23.1523 40.2309 20.4905C40.2309 17.8287 37.9732 15.6709 35.1882 15.6709C32.4032 15.6709 30.1455 17.8287 30.1455 20.4905C30.1455 23.1523 32.4032 25.3101 35.1882 25.3101Z" fill="#FFB8B8"/>
<path d="M30.2368 29.5673C30.2368 29.5673 34.9195 24.278 38.7508 28.5502C41.216 31.299 42.5198 34.8277 42.4073 38.4465L42.2628 43.0957L33.4295 41.7734L30.2368 29.5673Z" fill="#6C63FF"/>
<path d="M42.5425 39.8163C42.5058 39.8163 42.469 39.8156 42.4322 39.8141C42.0548 39.7992 41.6853 39.7061 41.3492 39.5414C41.0131 39.3767 40.7184 39.1442 40.4855 38.86L34.7541 31.8756C34.5101 31.5783 34.3639 31.2186 34.3339 30.8419C34.3038 30.4652 34.3914 30.0884 34.5854 29.7593C34.7793 29.4301 35.0711 29.1633 35.4238 28.9926C35.7764 28.8219 36.1741 28.755 36.5665 28.8003L37.3734 28.8935C37.8887 28.98 38.3575 29.2324 38.7019 29.6088L43.2231 35.1184L49.8111 28.9203C49.8123 28.899 49.8138 28.8777 49.8165 28.8563C49.8715 28.4201 50.0599 28.0091 50.3581 27.6747C50.6563 27.3403 51.051 27.0973 51.4929 26.9762C51.9348 26.855 52.4042 26.8611 52.8425 26.9937C53.2808 27.1262 53.6685 27.3793 53.9571 27.7213C54.2456 28.0633 54.4223 28.4791 54.465 28.9165C54.5076 29.354 54.4144 29.7938 54.1969 30.1809C53.9794 30.568 53.6474 30.8852 53.2423 31.0929C52.8372 31.3005 52.377 31.3894 51.9193 31.3484L44.4556 39.0194C44.2113 39.2709 43.9152 39.4715 43.5861 39.6086C43.2569 39.7457 42.9016 39.8165 42.5425 39.8163Z" fill="#FFB8B8"/>
<path d="M36.0057 21.3243L38.1722 18.8848C38.7305 18.2562 39.3145 17.5714 39.3935 16.7502C39.48 15.8501 38.9072 14.9751 38.124 14.4683C37.3409 13.9615 36.3792 13.7708 35.4362 13.7008C33.6873 13.571 31.847 13.8473 30.4093 14.8079C28.9716 15.7684 28.031 17.5026 28.3815 19.1454C28.6576 20.4388 29.6747 21.6779 29.2793 22.9428C28.8468 24.3268 27.0729 24.7515 25.6246 25.1642C23.1936 25.8569 20.8724 27.2207 19.5983 29.3173C18.3243 31.4139 18.3299 34.3048 20.0282 36.1058C21.1279 37.272 22.7864 37.8618 24.4264 37.9505C26.0664 38.0393 27.6987 37.6701 29.2541 37.1652C30.6865 36.7002 32.1034 36.102 33.2311 35.1383C34.3588 34.1745 35.1711 32.7954 35.136 31.3499C35.1025 29.9724 34.3304 28.7176 34.0133 27.3735C33.7631 26.2479 33.8287 25.0792 34.2035 23.9857C34.5784 22.8923 35.249 21.9129 36.1476 21.1471" fill="#2F2E41"/>
<path d="M141.153 70.0542H89.6191C89.2381 70.0538 88.8728 69.909 88.6033 69.6515C88.3339 69.394 88.1823 69.0448 88.1819 68.6806V41.9933C88.1823 41.6291 88.3339 41.28 88.6033 41.0225C88.8728 40.7649 89.2381 40.6201 89.6191 40.6197H141.153C141.534 40.6201 141.899 40.7649 142.168 41.0225C142.438 41.28 142.589 41.6291 142.59 41.9933V68.6806C142.589 69.0448 142.438 69.394 142.168 69.6515C141.899 69.909 141.534 70.0538 141.153 70.0542ZM89.6191 41.0122C89.3469 41.0125 89.086 41.1159 88.8936 41.2999C88.7011 41.4838 88.5929 41.7332 88.5925 41.9933V68.6806C88.5929 68.9408 88.7011 69.1901 88.8936 69.3741C89.086 69.558 89.3469 69.6615 89.6191 69.6618H141.153C141.425 69.6615 141.686 69.558 141.878 69.3741C142.071 69.1901 142.179 68.9408 142.179 68.6806V41.9933C142.179 41.7332 142.071 41.4838 141.878 41.2999C141.686 41.1159 141.425 41.0125 141.153 41.0122H89.6191Z" fill="#3F3D56"/>
<path d="M109.889 52.2281C109.273 50.8207 108.318 49.6468 106.931 48.8687C105.474 48.0512 103.811 47.3704 102.136 47.1249C100.458 46.888 98.7483 46.9795 97.1091 47.3938C96.3189 47.5894 95.4479 47.8166 94.7814 48.2849C94.1444 48.7326 93.708 49.469 93.3527 50.1306C93.0123 50.7645 92.8001 51.4625 92.9843 52.1724C93.1846 52.8187 93.6019 53.3842 94.1718 53.7814C94.6568 54.1476 95.3352 54.6324 95.9839 54.4054C96.0208 54.3925 96.056 54.3756 96.0887 54.3549C97.2091 54.6807 98.3231 54.2069 99.4732 53.8359C100.172 53.6104 100.875 53.4964 101.577 53.7778C102.263 54.0847 102.842 54.5739 103.244 55.187C103.637 55.7456 103.895 56.3797 104.326 56.9151C104.54 57.1908 104.812 57.4204 105.125 57.5893C105.438 57.7581 105.784 57.8623 106.142 57.8953C107.532 58.0439 109.376 57.907 110.177 56.6494C111.03 55.3093 110.471 53.5619 109.889 52.2281ZM95.7028 50.1699C95.9089 50.1923 96.115 50.2146 96.3212 50.2369C95.9284 50.3045 95.561 50.4692 95.2555 50.7145C95.1392 50.8083 95.0315 50.9112 94.9333 51.0221C94.9361 51.0132 94.9377 51.0046 94.9408 50.9955C95.0014 50.8151 95.1004 50.6487 95.2315 50.5066C95.3626 50.3645 95.5231 50.2499 95.7028 50.1699ZM102.623 51.428C102.668 51.4608 102.722 51.4826 102.778 51.4914C102.785 51.4924 102.791 51.4936 102.798 51.4946C102.836 51.5157 102.875 51.5365 102.913 51.5571C102.909 51.5629 102.906 51.5693 102.901 51.5752C102.807 51.5659 102.713 51.557 102.619 51.5479C102.625 51.5083 102.627 51.468 102.623 51.428ZM105.117 54.2471C105.096 54.2682 105.078 54.2914 105.062 54.3163C105.053 54.3035 105.044 54.2906 105.035 54.2778C105.06 54.2634 105.088 54.253 105.117 54.2471ZM106.728 55.9136C106.822 55.9253 106.915 55.9371 107.008 55.9488C106.991 55.9778 106.978 56.0091 106.97 56.0417C106.904 56.0437 106.837 56.0448 106.771 56.045L106.728 55.9136ZM108.081 55.1537L108.194 55.1352C108.253 55.126 108.309 55.1047 108.359 55.0726C108.359 55.0789 108.359 55.0853 108.36 55.0916C108.361 55.1131 108.363 55.14 108.365 55.1705C108.356 55.186 108.347 55.2013 108.337 55.2165C108.252 55.1956 108.166 55.1746 108.081 55.1537ZM103.276 50.4047C103.232 50.369 103.181 50.3405 103.126 50.3203C102.862 50.2227 102.591 50.1417 102.315 50.0779C102.274 50.0408 102.234 50.0027 102.194 49.9637C102.427 50.0076 102.657 50.0635 102.883 50.1313C103.174 50.2202 103.459 50.3249 103.736 50.4448C103.583 50.4284 103.43 50.4151 103.276 50.4047ZM105.865 50.5704C105.73 50.4898 105.594 50.4106 105.457 50.3329C105.597 50.4084 105.735 50.4875 105.872 50.5703L105.865 50.5704ZM108.655 51.7877C108.293 51.3643 107.893 50.9722 107.458 50.616C107.492 50.5424 107.509 50.4628 107.508 50.3825C107.963 50.7925 108.35 51.2663 108.655 51.7877ZM103.451 48.3228C103.394 48.3101 103.336 48.2974 103.279 48.285C102.735 48.1677 102.181 48.0412 101.622 47.9339C101.652 47.9373 101.682 47.9401 101.712 47.9437C102.302 48.0185 102.885 48.1454 103.451 48.3228Z" fill="#6C63FF"/>
<path d="M103.924 63.1816C103.406 63.1678 102.762 63.1505 102.265 62.804C102.117 62.6966 101.996 62.5595 101.909 62.4025C101.823 62.2455 101.773 62.0723 101.764 61.895C101.755 61.769 101.777 61.6427 101.827 61.5261C101.878 61.4094 101.956 61.3055 102.055 61.2225C102.203 61.1169 102.377 61.0485 102.559 61.0233C102.742 60.9982 102.928 61.0172 103.101 61.0786L102.679 58.1257L102.989 58.0851L103.486 61.5565L103.227 61.4428C102.926 61.3111 102.514 61.2442 102.258 61.4511C102.195 61.5052 102.146 61.5724 102.114 61.6476C102.083 61.7227 102.07 61.8038 102.077 61.8844C102.085 62.0163 102.122 62.1452 102.186 62.2621C102.251 62.3791 102.341 62.4815 102.45 62.5622C102.836 62.8319 103.35 62.8667 103.933 62.8824L103.924 63.1816Z" fill="#3F3D56"/>
<path d="M101.144 58.3804H99.4568V58.6798H101.144V58.3804Z" fill="#3F3D56"/>
<path d="M106.469 58.3804H104.782V58.6798H106.469V58.3804Z" fill="#3F3D56"/>
<path d="M96.5258 54.2462C95.1673 54.0982 94.1151 52.8541 93.9995 51.5918C93.862 50.0901 94.7771 48.6638 96.0324 47.8211C97.3452 46.9398 98.9809 46.5718 100.563 46.4908C103.651 46.3439 106.685 47.2997 109.075 49.1723C110.261 50.1136 111.369 51.3127 111.789 52.761C112.153 54.0189 111.856 55.4438 110.798 56.3248C110.536 56.5406 110.23 56.7023 109.9 56.7996C109.569 56.8968 109.221 56.9275 108.878 56.8898C108.056 56.8083 107.299 56.3956 106.643 55.9397C105.367 55.0531 104.319 53.8178 102.765 53.3545C101.625 53.0147 100.146 53.3138 99.4492 54.2989C99.2912 54.5245 99.1888 54.7813 99.1497 55.0502C99.1353 55.1075 99.1442 55.168 99.1747 55.2192C99.2052 55.2705 99.2549 55.3088 99.3138 55.3264C99.3738 55.3419 99.4379 55.3341 99.492 55.3047C99.5461 55.2754 99.5859 55.2268 99.6028 55.1696C99.7856 53.9287 101.382 53.4657 102.502 53.7491C104.135 54.1623 105.232 55.5553 106.572 56.4403C107.266 56.9346 108.083 57.2464 108.942 57.3444C109.687 57.4003 110.426 57.1832 111.01 56.7373C112.155 55.8733 112.593 54.3872 112.339 53.0493C112.046 51.4999 110.955 50.172 109.758 49.1439C107.331 47.0818 104.18 45.9693 100.933 46.0282C99.2774 46.0646 97.5495 46.3913 96.1229 47.2279C94.739 48.0393 93.6694 49.3969 93.5296 50.9749C93.4065 52.3639 94.1863 53.8167 95.5247 54.4252C95.8403 54.5681 96.1787 54.6594 96.5258 54.6953C96.8257 54.728 96.8233 54.2787 96.5258 54.2462H96.5258Z" fill="#3F3D56"/>
<path d="M136.02 48.0764H119.184C119.13 48.0764 119.078 48.0558 119.039 48.019C119.001 47.9822 118.979 47.9322 118.979 47.8802C118.979 47.8281 119.001 47.7782 119.039 47.7414C119.078 47.7046 119.13 47.684 119.184 47.684H136.02C136.074 47.684 136.127 47.7046 136.165 47.7414C136.204 47.7782 136.225 47.8281 136.225 47.8802C136.225 47.9322 136.204 47.9822 136.165 48.019C136.127 48.0558 136.074 48.0764 136.02 48.0764Z" fill="#3F3D56"/>
<path d="M136.02 51.0199H119.184C119.13 51.0199 119.078 50.9992 119.039 50.9624C119.001 50.9256 118.979 50.8757 118.979 50.8237C118.979 50.7716 119.001 50.7217 119.039 50.6849C119.078 50.6481 119.13 50.6274 119.184 50.6274H136.02C136.074 50.6274 136.127 50.6481 136.165 50.6849C136.204 50.7217 136.225 50.7716 136.225 50.8237C136.225 50.8757 136.204 50.9256 136.165 50.9624C136.127 50.9992 136.074 51.0199 136.02 51.0199Z" fill="#3F3D56"/>
<path d="M136.02 53.9633H119.184C119.13 53.9633 119.078 53.9427 119.039 53.9059C119.001 53.8691 118.979 53.8191 118.979 53.7671C118.979 53.715 119.001 53.6651 119.039 53.6283C119.078 53.5915 119.13 53.5709 119.184 53.5709H136.02C136.074 53.5709 136.127 53.5915 136.165 53.6283C136.204 53.6651 136.225 53.715 136.225 53.7671C136.225 53.8191 136.204 53.8691 136.165 53.9059C136.127 53.9427 136.074 53.9633 136.02 53.9633Z" fill="#3F3D56"/>
<path d="M136.02 56.9069H119.184C119.13 56.9069 119.078 56.8862 119.039 56.8494C119.001 56.8126 118.979 56.7627 118.979 56.7106C118.979 56.6586 119.001 56.6087 119.039 56.5719C119.078 56.5351 119.13 56.5144 119.184 56.5144H136.02C136.074 56.5144 136.127 56.5351 136.165 56.5719C136.204 56.6087 136.225 56.6586 136.225 56.7106C136.225 56.7627 136.204 56.8126 136.165 56.8494C136.127 56.8862 136.074 56.9069 136.02 56.9069Z" fill="#3F3D56"/>
<path d="M136.02 59.8503H119.184C119.13 59.8503 119.078 59.8296 119.039 59.7928C119.001 59.756 118.979 59.7061 118.979 59.6541C118.979 59.602 119.001 59.5521 119.039 59.5153C119.078 59.4785 119.13 59.4578 119.184 59.4578H136.02C136.074 59.4578 136.127 59.4785 136.165 59.5153C136.204 59.5521 136.225 59.602 136.225 59.6541C136.225 59.7061 136.204 59.756 136.165 59.7928C136.127 59.8296 136.074 59.8503 136.02 59.8503Z" fill="#3F3D56"/>
<path d="M136.02 62.7937H119.184C119.13 62.7937 119.078 62.773 119.039 62.7362C119.001 62.6994 118.979 62.6495 118.979 62.5975C118.979 62.5454 119.001 62.4955 119.039 62.4587C119.078 62.4219 119.13 62.4012 119.184 62.4012H136.02C136.074 62.4012 136.127 62.4219 136.165 62.4587C136.204 62.4955 136.225 62.5454 136.225 62.5975C136.225 62.6495 136.204 62.6994 136.165 62.7362C136.127 62.773 136.074 62.7937 136.02 62.7937Z" fill="#3F3D56"/>
<path d="M167.471 41.5372C170.446 41.5372 172.858 39.232 172.858 36.3884C172.858 33.5447 170.446 31.2395 167.471 31.2395C164.496 31.2395 162.084 33.5447 162.084 36.3884C162.084 39.232 164.496 41.5372 167.471 41.5372Z" fill="#FFB8B8"/>
<path d="M151.416 112.248L148.854 111.467L150.784 101.651L154.566 102.803L151.416 112.248Z" fill="#FFB8B8"/>
<path d="M147.141 110.174L152.198 111.715L151.207 114.688L143.154 112.235L143.192 112.124C143.317 111.748 143.518 111.399 143.785 111.098C144.051 110.797 144.377 110.548 144.744 110.367C145.11 110.186 145.511 110.076 145.922 110.043C146.333 110.009 146.748 110.054 147.141 110.174Z" fill="#2F2E41"/>
<path d="M170.056 112.197H167.367L166.087 102.284H170.056V112.197Z" fill="#FFB8B8"/>
<path d="M165.324 111.463H170.632V114.584H162.181V114.467C162.181 114.072 162.262 113.682 162.42 113.317C162.578 112.953 162.81 112.622 163.102 112.343C163.393 112.064 163.74 111.842 164.121 111.691C164.503 111.54 164.911 111.463 165.324 111.463Z" fill="#2F2E41"/>
<path d="M169.977 108.98L169.07 108.851C166.317 108.459 166.152 108.435 165.715 108.252C165.492 108.158 165.476 106.742 165.61 98.7826C165.709 92.9399 165.831 85.6686 165.593 81.765C165.584 81.6109 165.52 81.4646 165.412 81.3494C165.305 81.2343 165.16 81.1571 165.001 81.1304C164.842 81.1036 164.678 81.1288 164.536 81.2019C164.394 81.275 164.281 81.3917 164.217 81.5333C162.169 86.0539 158.733 96.1702 156.459 102.864C155.668 105.193 155.043 107.032 154.648 108.135C154.572 108.343 154.417 108.517 154.214 108.622C154.01 108.727 153.773 108.756 153.549 108.703C151.678 108.256 151.803 108.066 149.138 107.407C148.907 107.351 148.708 107.212 148.583 107.019C148.457 106.825 148.415 106.593 148.464 106.371C148.946 104.198 157.768 68.9694 158.443 65.6205C158.466 65.5059 158.512 65.3967 158.579 65.2993C158.647 65.2019 158.733 65.1182 158.835 65.0531C158.936 64.9879 159.05 64.9426 159.169 64.9196C159.289 64.8967 159.412 64.8967 159.532 64.9196C161.518 65.3021 162.727 65.7079 164.689 66.1003C166.807 66.5237 168.997 66.9616 171.133 67.3702C171.346 67.4111 171.536 67.5227 171.671 67.6852C172.2 68.3233 172.983 68.6814 173.813 69.0606C174.373 69.3162 173.105 69.2932 173.592 69.6618C175.565 71.1546 172.728 101.468 171.014 108.315C170.959 108.529 170.822 108.716 170.63 108.839C170.438 108.962 170.206 109.013 169.977 108.98V108.98Z" fill="#2F2E41"/>
<path d="M168.353 74.6225C168.292 74.3564 168.293 74.0807 168.355 73.8148C168.417 73.5489 168.54 73.2994 168.714 73.0837C168.888 72.8679 169.11 72.6914 169.363 72.5663C169.616 72.4413 169.895 72.3708 170.18 72.36L174.534 67.6626L177.238 70.7847L172.231 74.281C172.218 74.7395 172.03 75.1777 171.702 75.5126C171.374 75.8474 170.929 76.0556 170.451 76.0977C169.973 76.1398 169.495 76.0129 169.109 75.741C168.722 75.4691 168.453 75.0711 168.353 74.6225V74.6225Z" fill="#FFB8B8"/>
<path d="M169.767 40.8938C169.453 39.6182 171.042 36.8737 170.728 35.5982C170.515 34.7343 168.39 35.3215 167.894 34.5713C167.398 33.821 166.567 33.2132 165.639 33.2032C164.571 33.1918 163.521 33.9484 162.51 33.6214C161.488 33.2907 161.161 31.9529 161.613 31.0163C162.065 30.0796 163.039 29.4828 164.001 29.0151C165.638 28.2188 167.546 27.6372 169.299 28.1641C170.358 28.4826 171.244 29.1728 172.102 29.8478C172.883 30.4631 173.678 31.0924 174.225 31.9072C175.295 33.5035 175.23 35.6544 174.316 37.3367C173.401 39.0191 171.734 40.2537 169.898 40.9704" fill="#2F2E41"/>
<path d="M156.539 70.5768C157.121 69.6485 158.003 65.2987 159.092 57.9978C159.833 53.0137 160.479 47.9496 160.799 45.3627C160.824 45.1534 160.904 44.9535 161.032 44.7818C161.16 44.6102 161.331 44.4723 161.53 44.3813C161.738 44.2854 161.945 44.1946 162.15 44.109C164.803 43.006 167.492 42.6405 170.142 43.0226C172.787 43.411 175.269 44.4916 177.311 46.1449L177.335 46.1666L177.341 46.1977C177.353 46.2552 178.466 51.9861 176.186 55.858C173.939 59.6784 173.912 69.7955 173.912 69.8973V70.0273L173.782 69.9917C170.285 69.0367 156.777 70.7074 156.64 70.7245L156.43 70.7507L156.539 70.5768Z" fill="#CCCCCC"/>
<path d="M170.889 71.3531L177.758 62.5993L174.216 55.3448L174.473 46.7409L177.377 46.2281L177.408 46.2428C178.818 47.0314 179.912 48.2491 180.514 49.7013C181.159 51.2428 182.497 56.4872 183.505 60.6153C183.769 61.6777 183.743 62.787 183.429 63.8369C183.115 64.8868 182.525 65.8422 181.715 66.6116L173.288 74.6655L170.889 71.3531Z" fill="#CCCCCC"/>
<path d="M142.052 54.0047C142.216 53.782 142.429 53.5964 142.676 53.461C142.924 53.3256 143.199 53.2437 143.483 53.221C143.767 53.1984 144.053 53.2356 144.321 53.3299C144.588 53.4243 144.831 53.5735 145.031 53.7671L151.597 53.6705L151.009 57.6843L144.931 56.5099C144.568 56.8103 144.103 56.9732 143.623 56.9676C143.143 56.962 142.682 56.7884 142.327 56.4796C141.972 56.1708 141.748 55.7483 141.697 55.2921C141.646 54.836 141.773 54.3779 142.052 54.0047Z" fill="#FFB8B8"/>
<path d="M145.347 57.5156L146.286 53.5879L157.681 52.5292L160.805 45.3488L160.896 45.1367L162.124 44.1247L162.15 44.109C164.803 43.0061 167.492 42.6406 170.142 43.0226L170.235 43.0361L170.229 43.1258C170.169 44.0447 169.922 44.9436 169.502 45.7722C168.324 48.1089 161.071 58.0422 160.998 58.1422L160.966 58.1865L145.347 57.5156Z" fill="#CCCCCC"/>
<path d="M199.975 114.991H121.751C121.696 114.991 121.644 114.97 121.605 114.934C121.567 114.897 121.545 114.847 121.545 114.795C121.545 114.743 121.567 114.693 121.605 114.656C121.644 114.619 121.696 114.599 121.751 114.599H199.975C200.029 114.599 200.082 114.619 200.12 114.656C200.159 114.693 200.18 114.743 200.18 114.795C200.18 114.847 200.159 114.897 200.12 114.934C200.082 114.97 200.029 114.991 199.975 114.991Z" fill="#3F3D56"/>
<path d="M78.4296 88.4999H0.205313C0.150861 88.4999 0.0986398 88.4792 0.0601362 88.4424C0.0216325 88.4056 0 88.3557 0 88.3036C0 88.2516 0.0216325 88.2017 0.0601362 88.1649C0.0986398 88.1281 0.150861 88.1074 0.205313 88.1074H78.4296C78.484 88.1074 78.5362 88.1281 78.5747 88.1649C78.6133 88.2017 78.6349 88.2516 78.6349 88.3036C78.6349 88.3557 78.6133 88.4056 78.5747 88.4424C78.5362 88.4792 78.484 88.4999 78.4296 88.4999Z" fill="#3F3D56"/>
</g>
<defs>
<clipPath id="clip0">
<rect width="202" height="115" fill="white"/>
</clipPath>
</defs>
</svg>
